HIERARCHY
ROOT hip
{
  OFFSET 0.00112043 5.09927 -9.65472
  CHANNELS 6 Xposition Yposition Zposition Zrotation Xrotation Yrotation
  JOINT abdomen
  {
    OFFSET 0 -1.186 -1.5018
    CHANNELS 3 Zrotation Xrotation Yrotation
    JOINT abdomen2
    {
      OFFSET 0 9.964 0.2134
      CHANNELS 3 Zrotation Xrotation Yrotation
      JOINT chest
      {
        OFFSET 0 13.134 -3.2573
        CHANNELS 3 Zrotation Xrotation Yrotation
        JOINT neck
        {
          OFFSET 0 20.686 -1.6905
          CHANNELS 3 Zrotation Xrotation Yrotation
          JOINT head
          {
            OFFSET 0 7.238 -0.1237
            CHANNELS 3 Zrotation Xrotation Yrotation
            End Site
            {
              OFFSET 0 0 0
            }
          }
        }
        JOINT lCollar
        {
          OFFSET 1.7069 20.075 5.0056
          CHANNELS 3 Zrotation Xrotation Yrotation
          JOINT lShldr
          {
            OFFSET 13.6458 -0.047 -4.849
            CHANNELS 3 Zrotation Xrotation Yrotation
            JOINT lForeArm
            {
              OFFSET 28.3255 -0.9759 2.2888
              CHANNELS 3 Zrotation Xrotation Yrotation
              JOINT lHand
              {
                OFFSET 22.1583 -0.53 10.8316
                CHANNELS 3 Zrotation Xrotation Yrotation
                JOINT lThumb1
                {
                  OFFSET 0.786 0.112 2.5817
                  CHANNELS 3 Zrotation Xrotation Yrotation
                  JOINT lThumb2
                  {
                    OFFSET 0.3601 -0.878 4.2331
                    CHANNELS 3 Zrotation Xrotation Yrotation
                    JOINT lThumb2_End
                    {
                      OFFSET 1.8127 -1.216 2.2227
                      CHANNELS 3 Zrotation Xrotation Yrotation
                      End Site
                      {
                        OFFSET 0.0181 -0.0122 0.0222
                      }
                    }
                  }
                }
                JOINT lCarpal1
                {
                  OFFSET 0.9571 1.114 1.7695
                  CHANNELS 3 Zrotation Xrotation Yrotation
                  JOINT lIndex1
                  {
                    OFFSET 4.1246 0.487 4.1451
                    CHANNELS 3 Zrotation Xrotation Yrotation
                    JOINT lIndex2
                    {
                      OFFSET 3.4052 -1.454 2.7682
                      CHANNELS 3 Zrotation Xrotation Yrotation
                      JOINT lIndex2_End
                      {
                        OFFSET 1.4531 -1.795 1.2713
                        CHANNELS 3 Zrotation Xrotation Yrotation
                        End Site
                        {
                          OFFSET 0.0145 -0.0179 0.0127
                        }
                      }
                    }
                  }
                  JOINT lMid1
                  {
                    OFFSET 5.6954 0.21 2.1184
                    CHANNELS 3 Zrotation Xrotation Yrotation
                    JOINT lMid2
                    {
                      OFFSET 3.9766 -1.54 2.3863
                      CHANNELS 3 Zrotation Xrotation Yrotation
                      JOINT lMid2_End
                      {
                        OFFSET 1.4042 -1.926 1.125
                        CHANNELS 3 Zrotation Xrotation Yrotation
                        End Site
                        {
                          OFFSET 0.014 -0.0193 0.0113
                        }
                      }
                    }
                  }
                }
                JOINT lCarpal2
                {
                  OFFSET 2.0956 0.66 -0.3894
                  CHANNELS 3 Zrotation Xrotation Yrotation
                  JOINT lRing1
                  {
                    OFFSET 5.0395 -0.09 2.4971
                    CHANNELS 3 Zrotation Xrotation Yrotation
                    JOINT lRing2
                    {
                      OFFSET 3.7921 -1.552 1.4806
                      CHANNELS 3 Zrotation Xrotation Yrotation
                      JOINT lRing2_End
                      {
                        OFFSET 1.4655 -1.808 0.9609
                        CHANNELS 3 Zrotation Xrotation Yrotation
                        End Site
                        {
                          OFFSET 0.0147 -0.0181 0.0096
                        }
                      }
                    }
                  }
                  JOINT lPinky1
                  {
                    OFFSET 4.9141 -1.269 0.3591
                    CHANNELS 3 Zrotation Xrotation Yrotation
                    JOINT lPinky2
                    {
                      OFFSET 3.1477 -1.685 0.8462
                      CHANNELS 3 Zrotation Xrotation Yrotation
                      JOINT lPinky2_End
                      {
                        OFFSET 0.8055 -1.585 0.7955
                        CHANNELS 3 Zrotation Xrotation Yrotation
                        End Site
                        {
                          OFFSET 0.0081 -0.0158 0.008
                        }
                      }
                    }
                  }
                }
              }
            }
          }
        }
        JOINT rCollar
        {
          OFFSET -1.7069 20.075 5.0056
          CHANNELS 3 Zrotation Xrotation Yrotation
          JOINT rShldr
          {
            OFFSET -13.6458 -0.047 -4.849
            CHANNELS 3 Zrotation Xrotation Yrotation
            JOINT rForeArm
            {
              OFFSET -28.3255 -0.9759 2.2888
              CHANNELS 3 Zrotation Xrotation Yrotation
              JOINT rHand
              {
                OFFSET -22.1583 -0.53 10.8316
                CHANNELS 3 Zrotation Xrotation Yrotation
                JOINT rThumb1
                {
                  OFFSET -0.786 0.112 2.5817
                  CHANNELS 3 Zrotation Xrotation Yrotation
                  JOINT rThumb2
                  {
                    OFFSET -0.3601 -0.878 4.2331
                    CHANNELS 3 Zrotation Xrotation Yrotation
                    JOINT rThumb2_End
                    {
                      OFFSET -1.8127 -1.216 2.2227
                      CHANNELS 3 Zrotation Xrotation Yrotation
                      End Site
                      {
                        OFFSET -0.0181 -0.0122 0.0222
                      }
                    }
                  }
                }
                JOINT rCarpal1
                {
                  OFFSET -0.9571 1.114 1.7695
                  CHANNELS 3 Zrotation Xrotation Yrotation
                  JOINT rIndex1
                  {
                    OFFSET -4.1246 0.487 4.1451
                    CHANNELS 3 Zrotation Xrotation Yrotation
                    JOINT rIndex2
                    {
                      OFFSET -3.4052 -1.454 2.7682
                      CHANNELS 3 Zrotation Xrotation Yrotation
                      JOINT rIndex2_End
                      {
                        OFFSET -1.4531 -1.795 1.2713
                        CHANNELS 3 Zrotation Xrotation Yrotation
                        End Site
                        {
                          OFFSET -0.0145 -0.018 0.0127
                        }
                      }
                    }
                  }
                  JOINT rMid1
                  {
                    OFFSET -5.6954 0.21 2.1184
                    CHANNELS 3 Zrotation Xrotation Yrotation
                    JOINT rMid2
                    {
                      OFFSET -3.9766 -1.54 2.3863
                      CHANNELS 3 Zrotation Xrotation Yrotation
                      JOINT rMid2_End
                      {
                        OFFSET -1.4042 -1.926 1.125
                        CHANNELS 3 Zrotation Xrotation Yrotation
                        End Site
                        {
                          OFFSET -0.014 -0.0193 0.0113
                        }
                      }
                    }
                  }
                }
                JOINT rCarpal2
                {
                  OFFSET -2.0956 0.66 -0.3894
                  CHANNELS 3 Zrotation Xrotation Yrotation
                  JOINT rRing1
                  {
                    OFFSET -5.0395 -0.09 2.4971
                    CHANNELS 3 Zrotation Xrotation Yrotation
                    JOINT rRing2
                    {
                      OFFSET -3.7921 -1.552 1.4806
                      CHANNELS 3 Zrotation Xrotation Yrotation
                      JOINT rRing2_End
                      {
                        OFFSET -1.4655 -1.808 0.9609
                        CHANNELS 3 Zrotation Xrotation Yrotation
                        End Site
                        {
                          OFFSET -0.0147 -0.0181 0.0096
                        }
                      }
                    }
                  }
                  JOINT rPinky1
                  {
                    OFFSET -4.9141 -1.269 0.3592
                    CHANNELS 3 Zrotation Xrotation Yrotation
                    JOINT rPinky2
                    {
                      OFFSET -3.1477 -1.685 0.8462
                      CHANNELS 3 Zrotation Xrotation Yrotation
                      JOINT rPinky2_End
                      {
                        OFFSET -0.8055 -1.585 0.7955
                        CHANNELS 3 Zrotation Xrotation Yrotation
                        End Site
                        {
                          OFFSET -0.0081 -0.0158 0.008
                        }
                      }
                    }
                  }
                }
              }
            }
          }
        }
      }
    }
  }
  JOINT lThigh
  {
    OFFSET 8.367 -8.2066 0.5982
    CHANNELS 3 Zrotation Xrotation Yrotation
    JOINT lShin
    {
      OFFSET 2.1923 -43.463 -0.4932
      CHANNELS 3 Zrotation Xrotation Yrotation
      JOINT lFoot
      {
        OFFSET 0.7333 -45.8593 -2.6451
        CHANNELS 3 Zrotation Xrotation Yrotation
        End Site
        {
          OFFSET 2.6618 -4.2699 12.3931
        }
      }
    }
  }
  JOINT rThigh
  {
    OFFSET -8.367 -8.2066 0.5982
    CHANNELS 3 Zrotation Xrotation Yrotation
    JOINT rShin
    {
      OFFSET -2.1923 -43.463 -0.4931
      CHANNELS 3 Zrotation Xrotation Yrotation
      JOINT rFoot
      {
        OFFSET -0.7333 -45.8593 -2.6451
        CHANNELS 3 Zrotation Xrotation Yrotation
        End Site
        {
          OFFSET -2.6618 -4.2699 12.3931
        }
      }
    }
  }
}
MOTION
Frames:	6
Frame Time:	0.0333333
0 91.7903 2.51682 0 0 -0 0 0 -0 0 0 -0 0 0 -0 0 0 -0 0 0 -0 0 0 -0 1.66051 0.0835086 5.75766 -0.0175111 0.895433 15.7816 7.95139e-016 -1.98785e-016 -0 5.46658e-016 -3.97569e-016 -0 5.96354e-016 0 -0 3.97569e-016 1.98785e-016 9.54166e-015 1.49089e-016 -3.97569e-016 -0 6.4605e-016 0 3.18055e-015 5.96354e-016 0 3.18055e-015 8.94531e-016 -1.98785e-016 6.36111e-015 6.4605e-016 0 3.18055e-015 5.96354e-016 0 3.18055e-015 8.94531e-016 -1.98785e-016 6.36111e-015 1.49089e-016 -3.97569e-016 -0 6.4605e-016 0 3.18055e-015 5.96354e-016 0 3.18055e-015 8.94531e-016 -1.98785e-016 6.36111e-015 6.4605e-016 0 3.18055e-015 5.96354e-016 0 3.18055e-015 8.94531e-016 -1.98785e-016 6.36111e-015 0 0 -0 -1.4496 0.0636048 -5.0245 -1.74811 1.20616 -16.8394 -1.19271e-015 1.98785e-016 -3.18055e-015 -3.97569e-016 1.98785e-016 -3.18055e-015 -2.98177e-016 1.98785e-016 -3.18055e-015 -2.98177e-016 3.97569e-016 -0 4.96962e-016 0 -6.36111e-015 -9.93923e-017 3.97569e-016 -0 -8.94531e-016 5.96354e-016 -0 -3.97569e-016 3.97569e-016 -0 -9.93923e-017 3.97569e-016 -0 -8.94531e-016 5.96354e-016 -0 -3.97569e-016 3.97569e-016 -0 4.96962e-016 0 -6.36111e-015 -9.93923e-017 3.97569e-016 -0 -8.94531e-016 5.96354e-016 -0 -3.97569e-016 3.97569e-016 -0 -9.93923e-017 3.97569e-016 -0 -8.94531e-016 5.96354e-016 -0 -3.97569e-016 3.97569e-016 -0 -4.66111 -0.998717 0.12318 0.00986924 1.54847 0.176523 4.65186 -0.572283 -0.254274 4.66111 -0.998765 -0.123176 -0.00986867 1.54869 -0.176537 -4.65186 -0.572453 0.25427 
0.000347026 11.5286 2.50247 0 0 -0 0 0.199557 -0 0 0.399115 -0 0 0.399115 -0 0 0.0001112 -0 0 0 -0 -3.36265e-010 4.3996e-005 -2.0022 -76.2044 9.25504 -65.0672 0.163025 -0.0984727 -16.2061 4.65047 -1.82902 0.159157 1.59028e-015 -4.77083e-015 -0 1.59028e-015 -4.96962e-015 -1.59028e-015 7.95139e-016 -5.56597e-015 1.59028e-015 7.95139e-016 1.98785e-016 -0 3.97569e-015 2.04748e-014 1.59028e-015 -1.59028e-015 -3.37934e-015 1.59028e-015 7.95139e-016 -4.57205e-015 -0 3.97569e-015 2.04748e-014 1.59028e-015 -1.59028e-015 -3.37934e-015 1.59028e-015 7.95139e-016 -4.57205e-015 -0 7.95139e-016 1.98785e-016 -0 3.97569e-015 2.04748e-014 1.59028e-015 -1.59028e-015 -3.37934e-015 1.59028e-015 7.95139e-016 -4.57205e-015 -0 3.97569e-015 2.04748e-014 1.59028e-015 -1.59028e-015 -3.37934e-015 1.59028e-015 7.95139e-016 -4.57205e-015 -0 -1.36045e-008 4.40591e-005 11.9978 60.6609 7.01743 70.202 -1.86778 -0.660752 15.1063 -9.30101 -3.68693 -0.548205 1.11319e-014 -9.93923e-016 -1.98785e-015 1.03368e-014 -3.85145e-015 -0 1.27222e-014 -5.09386e-016 -2.28602e-015 -1.53452e-032 -1.10574e-015 -7.95139e-016 1.11319e-014 -5.1858e-014 4.67144e-015 1.03368e-014 -3.926e-015 -1.09332e-015 1.11319e-014 -4.5969e-016 -1.49089e-015 1.11319e-014 -5.1858e-014 4.67144e-015 1.03368e-014 -3.926e-015 -1.09332e-015 1.11319e-014 -4.5969e-016 -1.49089e-015 -1.53452e-032 -1.10574e-015 -7.95139e-016 1.11319e-014 -5.1858e-014 4.67144e-015 1.03368e-014 -3.926e-015 -1.09332e-015 1.11319e-014 -4.5969e-016 -1.49089e-015 1.11319e-014 -5.1858e-014 4.67144e-015 1.03368e-014 -3.926e-015 -1.09332e-015 1.11319e-014 -4.5969e-016 -1.49089e-015 72.8709 -75.7483 87.7368 178.818 31.5225 -165.255 -9.77599 78.4351 17.5306 -76.399 -75.9855 -91.3758 -178.818 31.5319 165.277 9.69495 78.3698 -17.4395 
0.000347026 11.5286 2.50247 0 0 -0 0 0.199557 -0 0 0.399115 -0 0 0.399115 -0 0.0926965 0.319183 0.595575 0.0170711 0.221187 0.165555 -2.27652e-010 4.49566e-005 -2.0022 -76.2044 9.25502 -65.0672 0.165375 -0.0730013 -15.4065 4.65048 -1.82901 0.159164 6.9519e-031 -8.34896e-015 4.77083e-015 -1.79775e-006 1.96803e-006 1.72947e-006 -7.15625e-015 1.39149e-015 7.95139e-015 7.95139e-016 1.19271e-015 3.18055e-015 3.97569e-015 2.98177e-015 4.77083e-015 -1.79775e-006 1.96803e-006 1.72947e-006 -7.15625e-015 6.36111e-015 1.43125e-014 3.97569e-015 2.98177e-015 4.77083e-015 -1.79775e-006 1.96803e-006 1.72947e-006 -7.15625e-015 6.36111e-015 1.43125e-014 7.95139e-016 1.19271e-015 3.18055e-015 3.97569e-015 2.98177e-015 4.77083e-015 -1.79775e-006 1.96803e-006 1.72947e-006 -7.15625e-015 6.36111e-015 1.43125e-014 3.97569e-015 2.98177e-015 4.77083e-015 -1.79775e-006 1.96803e-006 1.72947e-006 -7.15625e-015 6.36111e-015 1.43125e-014 -1.44805e-008 4.50247e-005 11.9978 60.6609 7.01743 70.202 -1.8316 -0.810265 17.6997 -9.30101 -3.68692 -0.5482 -7.95139e-016 -8.39865e-015 -0 7.95139e-016 -1.98785e-015 3.97569e-016 7.95139e-016 -2.03754e-015 -7.95139e-016 3.62078e-032 -5.2181e-015 3.97569e-016 1.3421e-030 -2.76311e-014 2.78299e-015 -7.95139e-016 -8.39865e-015 3.97569e-016 1.59028e-015 -5.1684e-015 -0 1.3421e-030 -2.76311e-014 2.78299e-015 -7.95139e-016 -8.39865e-015 3.97569e-016 1.59028e-015 -5.1684e-015 -0 3.62078e-032 -5.2181e-015 3.97569e-016 1.3421e-030 -2.76311e-014 2.78299e-015 -7.95139e-016 -8.39865e-015 3.97569e-016 1.59028e-015 -5.1684e-015 -0 1.3421e-030 -2.76311e-014 2.78299e-015 -7.95139e-016 -8.39865e-015 3.97569e-016 1.59028e-015 -5.1684e-015 -0 72.8708 -75.7483 87.7368 178.818 31.5224 -165.255 -9.7759 78.4351 17.5306 -76.399 -75.9855 -91.3758 -178.818 31.5319 165.277 9.69495 78.3698 -17.4395 
0.000347026 11.5286 2.50247 0 0 -0 0 0.199557 -0 0 0.399115 -0 0 0.399115 -0 0.182241 0.63981 1.19179 0.033509 0.442488 0.331099 -2.27652e-010 4.49566e-005 -2.0022 -76.2044 9.25503 -65.0672 0.167391 -0.0474847 -14.6066 4.65049 -1.82902 0.159157 1.18255e-006 -3.97483e-007 -3.47463e-007 -7.13215e-006 1.39324e-006 -7.1864e-006 -6.36111e-015 -7.35503e-015 1.11319e-014 7.95139e-016 1.59028e-015 -0 1.18255e-006 -3.97483e-007 -3.47463e-007 -7.13215e-006 1.39324e-006 -7.1864e-006 -6.36111e-015 -7.15625e-015 1.27222e-014 1.18255e-006 -3.97483e-007 -3.47463e-007 -7.13215e-006 1.39324e-006 -7.1864e-006 -6.36111e-015 -7.15625e-015 1.27222e-014 7.95139e-016 1.59028e-015 -0 1.18255e-006 -3.97483e-007 -3.47463e-007 -7.13215e-006 1.39324e-006 -7.1864e-006 -6.36111e-015 -7.15625e-015 1.27222e-014 1.18255e-006 -3.97483e-007 -3.47463e-007 -7.13215e-006 1.39324e-006 -7.1864e-006 -6.36111e-015 -7.15625e-015 1.27222e-014 -1.44805e-008 4.50247e-005 11.9978 60.6609 7.01743 70.202 -1.78862 -0.958211 20.2975 -9.301 -3.68692 -0.548185 -7.95139e-016 4.07509e-015 -1.59028e-015 1.18624e-031 4.27387e-015 -1.59028e-015 7.95139e-016 1.19271e-015 -0 -1.59028e-015 4.17448e-015 -7.95139e-016 -7.95139e-016 -2.11706e-014 3.18055e-015 -3.1725e-032 -2.28602e-015 -7.95139e-016 -7.95139e-016 -2.38542e-015 -7.95139e-016 -7.95139e-016 -2.11706e-014 3.18055e-015 -3.1725e-032 -2.28602e-015 -7.95139e-016 -7.95139e-016 -2.38542e-015 -7.95139e-016 -1.59028e-015 4.17448e-015 -7.95139e-016 -7.95139e-016 -2.11706e-014 3.18055e-015 -3.1725e-032 -2.28602e-015 -7.95139e-016 -7.95139e-016 -2.38542e-015 -7.95139e-016 -7.95139e-016 -2.11706e-014 3.18055e-015 -3.1725e-032 -2.28602e-015 -7.95139e-016 -7.95139e-016 -2.38542e-015 -7.95139e-016 72.8708 -75.7483 87.7368 178.818 31.5224 -165.255 -9.7759 78.4351 17.5306 -76.399 -75.9855 -91.3758 -178.818 31.5319 165.277 9.69495 78.3698 -17.4395 
0.000347026 11.5286 2.50247 0 0 -0 0 0.199557 -0 0 0.399115 -0 0 0.399115 -0 0.268607 0.961933 1.78863 0.0493123 0.663903 0.496633 -2.27652e-010 4.49566e-005 -2.0022 -76.2044 9.25503 -65.0672 0.169041 -0.0219461 -13.8068 4.65048 -1.82902 0.159152 2.38542e-015 -5.96354e-016 -7.95139e-015 -3.31043e-032 -1.19271e-015 -1.59028e-015 7.95139e-016 -1.59028e-015 1.59028e-015 1.59028e-015 -3.97569e-016 -6.36111e-015 5.56597e-015 1.80894e-014 1.59028e-015 7.95139e-016 3.97569e-016 1.59028e-015 1.59028e-015 3.97569e-016 -0 5.56597e-015 1.80894e-014 1.59028e-015 7.95139e-016 3.97569e-016 1.59028e-015 1.59028e-015 3.97569e-016 -0 1.59028e-015 -3.97569e-016 -6.36111e-015 5.56597e-015 1.80894e-014 1.59028e-015 7.95139e-016 3.97569e-016 1.59028e-015 1.59028e-015 3.97569e-016 -0 5.56597e-015 1.80894e-014 1.59028e-015 7.95139e-016 3.97569e-016 1.59028e-015 1.59028e-015 3.97569e-016 -0 -1.44805e-008 4.50247e-005 11.9978 60.6608 7.01743 70.202 -1.73893 -1.10415 22.8967 -9.30101 -3.68692 -0.548192 7.95139e-016 -6.95746e-015 -1.59028e-015 -7.95139e-016 0 -1.59028e-015 0 0 -0 -0 -3.77691e-015 -0 -3.18055e-015 -2.90226e-014 2.38542e-015 -4.13804e-033 -2.98177e-016 -7.95139e-016 7.95139e-016 -6.36111e-015 -0 -3.18055e-015 -2.90226e-014 2.38542e-015 -4.13804e-033 -2.98177e-016 -7.95139e-016 7.95139e-016 -6.36111e-015 -0 -0 -3.77691e-015 -0 -3.18055e-015 -2.90226e-014 2.38542e-015 -4.13804e-033 -2.98177e-016 -7.95139e-016 7.95139e-016 -6.36111e-015 -0 -3.18055e-015 -2.90226e-014 2.38542e-015 -4.13804e-033 -2.98177e-016 -7.95139e-016 7.95139e-016 -6.36111e-015 -0 72.8708 -75.7483 87.7368 178.818 31.5224 -165.255 -9.7759 78.4351 17.5306 -76.399 -75.9855 -91.3758 -178.818 31.5319 165.277 9.69495 78.3698 -17.4395 
0.000347026 11.5286 2.50247 0 0 -0 0 0.199557 -0 0 0.399115 -0 0 0.399115 -0 0.351764 1.2855 2.3861 0.0644807 0.885424 0.662162 -2.27652e-010 4.49566e-005 -2.0022 -76.2044 9.25503 -65.0673 0.170351 0.00360705 -13.007 4.65047 -1.82903 0.159163 7.01923e-006 -1.5942e-006 1.99266e-008 -7.95139e-016 -5.96354e-016 3.18055e-015 -4.59564e-006 -1.90546e-006 3.99787e-006 -7.1726e-032 2.5842e-015 1.59028e-015 7.01923e-006 -1.5942e-006 1.99266e-008 5.51738e-033 -1.98785e-016 1.59028e-015 -4.59564e-006 -1.90546e-006 3.99787e-006 7.01923e-006 -1.5942e-006 1.99266e-008 5.51738e-033 -1.98785e-016 1.59028e-015 -4.59564e-006 -1.90546e-006 3.99787e-006 -7.1726e-032 2.5842e-015 1.59028e-015 7.01923e-006 -1.5942e-006 1.99266e-008 5.51738e-033 -1.98785e-016 1.59028e-015 -4.59564e-006 -1.90546e-006 3.99787e-006 7.01923e-006 -1.5942e-006 1.99266e-008 5.51738e-033 -1.98785e-016 1.59028e-015 -4.59564e-006 -1.90546e-006 3.99787e-006 -1.44805e-008 4.50247e-005 11.9978 60.6609 7.01743 70.202 -1.68272 -1.24759 25.4949 -9.30101 -3.68692 -0.548208 -1.33603e-006 -2.0811e-006 7.15074e-006 -1.48969e-031 -5.36719e-015 -1.59028e-015 1.32417e-031 -4.77083e-015 1.59028e-015 -1.59028e-015 2.5842e-015 -0 -1.33603e-006 -2.0811e-006 7.15074e-006 -4.74495e-031 -8.54774e-015 -3.18055e-015 -1.59028e-015 -7.35503e-015 1.59028e-015 -1.33603e-006 -2.0811e-006 7.15074e-006 -4.74495e-031 -8.54774e-015 -3.18055e-015 -1.59028e-015 -7.35503e-015 1.59028e-015 -1.59028e-015 2.5842e-015 -0 -1.33603e-006 -2.0811e-006 7.15074e-006 -4.74495e-031 -8.54774e-015 -3.18055e-015 -1.59028e-015 -7.35503e-015 1.59028e-015 -1.33603e-006 -2.0811e-006 7.15074e-006 -4.74495e-031 -8.54774e-015 -3.18055e-015 -1.59028e-015 -7.35503e-015 1.59028e-015 72.8708 -75.7483 87.7368 178.818 31.5224 -165.255 -9.7759 78.4351 17.5306 -76.399 -75.9855 -91.3758 -178.818 31.5319 165.277 9.69495 78.3698 -17.4395 
